<svg width="24" height="24" viewBox="0 0 24 24" fill="none" xmlns="http://www.w3.org/2000/svg">
<path fill-rule="evenodd" clip-rule="evenodd" d="M6.53133 3.36746C6.8238 3.01381 6.77647 2.48813 6.42563 2.19333C6.07478 1.89852 5.55327 1.94623 5.2608 2.29988L3.89935 3.94613C2.95347 5.08987 3.20039 6.80786 4.42941 7.634L7.10326 9.43133V12.8375L5.0189 13.4284C4.62148 13.541 4.20227 13.3425 4.0346 12.9623L2.58301 9.67008C2.3975 9.24936 1.90875 9.05987 1.49135 9.24686C1.07396 9.43385 0.885979 9.92651 1.07149 10.3472L2.52308 13.6394C3.02452 14.7766 4.27821 15.3703 5.46674 15.0334L7.10326 14.5694V15.1374C7.10326 15.826 7.27985 16.4729 7.58987 17.0348L6.18255 19.8719C5.93009 20.3809 5.25717 20.491 4.85801 20.0886L3.42926 18.6484C3.10628 18.3229 2.58263 18.3229 2.25965 18.6484C1.93667 18.974 1.93667 19.5018 2.25965 19.8274L3.6884 21.2676C4.88589 22.4746 6.90464 22.1444 7.66201 20.6176L8.78273 18.3582C9.40768 18.7926 10.1653 19.0469 10.9818 19.0469H13.0161C13.8327 19.0469 14.5903 18.7926 15.2153 18.3582L16.336 20.6176C17.0934 22.1444 19.1121 22.4746 20.3096 21.2676L21.7384 19.8274C22.0614 19.5018 22.0614 18.974 21.7384 18.6484C21.4154 18.3229 20.8917 18.3229 20.5688 18.6484L19.14 20.0886C18.7409 20.491 18.0679 20.3809 17.8155 19.8719L16.4081 17.0347C16.7181 16.4729 16.8947 15.8259 16.8947 15.1374V14.5716L18.5304 15.0358C19.72 15.3733 20.975 14.7792 21.4769 13.6409L22.9284 10.349C23.1143 9.9273 22.9259 9.43349 22.5075 9.24606C22.0892 9.05863 21.5992 9.24855 21.4133 9.67027L19.9619 12.9621C19.7945 13.3416 19.3762 13.5396 18.9797 13.4271L16.8947 12.8354V9.43189L19.569 7.634C20.7979 6.80783 21.0448 5.08992 20.0989 3.94622L18.7374 2.29988C18.4449 1.94623 17.9234 1.89852 17.5726 2.19333C17.2217 2.48813 17.1744 3.01381 17.4669 3.36746L18.8284 5.0138C19.1447 5.39622 19.0621 5.97066 18.6512 6.24691L16.6429 7.59706C16.0873 6.12342 14.673 5.07617 13.0161 5.07617H10.9818C9.32506 5.07617 7.91094 6.12323 7.35519 7.59666L5.34712 6.24685C4.93616 5.97061 4.8536 5.39615 5.16988 5.01371L6.53133 3.36746ZM15.2406 13.4122V8.98568C15.2406 7.74734 14.2447 6.74346 13.0161 6.74346H10.9818C9.75816 6.74346 8.76528 7.73937 8.75739 8.97091C8.75759 8.98183 8.75757 8.99276 8.75734 9.0037V13.4531C8.75756 13.464 8.75756 13.4749 8.75734 13.4857V15.1374C8.75734 16.3758 9.75327 17.3796 10.9818 17.3796H13.0161C14.2447 17.3796 15.2406 16.3758 15.2406 15.1374V13.5264C15.238 13.4887 15.238 13.4506 15.2406 13.4122ZM13.6943 12.0604C13.6943 13.0041 12.9353 13.7692 11.999 13.7692C11.0627 13.7692 10.3037 13.0041 10.3037 12.0604C10.3037 11.1166 11.0627 10.3516 11.999 10.3516C12.9353 10.3516 13.6943 11.1166 13.6943 12.0604Z" fill="#001938"/>
</svg>
